<?xml version="1.0" standalone="no"?>
<!DOCTYPE svg PUBLIC "-//W3C//DTD SVG 20010904//EN"
 "http://www.w3.org/TR/2001/REC-SVG-20010904/DTD/svg10.dtd">
<svg version="1.0" xmlns="http://www.w3.org/2000/svg"
 width="687.000000pt" height="72.000000pt" viewBox="0 0 687.000000 72.000000"
 preserveAspectRatio="xMidYMid meet">
<metadata>
Created by potrace 1.10, written by Peter Selinger 2001-2011
</metadata>
<g transform="translate(0.000000,72.000000) scale(0.100000,-0.100000)"
fill="#000000" stroke="none">
<path d="M1 358 c0 -252 3 -355 10 -338 6 14 20 35 31 48 l22 22 2565 0 c1411
0 2581 0 2598 0 27 0 35 5 46 32 8 18 17 62 20 98 4 36 12 89 19 118 9 41 9
57 -2 76 -13 26 -12 32 19 81 11 17 20 37 20 45 1 13 -298 15 -2631 15 -2606
0 -2633 0 -2663 20 -16 11 -33 24 -37 30 -13 18 -9 75 6 81 21 8 56 -14 56
-36 0 -10 3 -25 6 -34 6 -15 247 -16 2631 -16 1695 0 2631 -3 2643 -10 14 -8
21 -5 33 13 8 13 33 29 56 37 40 13 42 12 69 -13 l28 -27 617 0 c599 0 617 1
627 19 5 11 10 29 10 40 0 17 6 21 35 21 28 0 35 4 35 20 0 20 -7 20 -3435 20
l-3435 0 1 -362z m274 136 c20 -21 16 -68 -7 -72 -9 -2 -24 6 -35 16 -16 18
-48 26 -96 23 -15 -1 -18 -9 -15 -53 l3 -53 39 2 c22 2 44 7 50 13 24 24 44
11 48 -30 5 -52 -5 -70 -29 -52 -30 21 -66 33 -87 30 -17 -2 -22 -11 -24 -50
-3 -44 -1 -48 28 -63 50 -26 24 -45 -61 -45 -75 0 -95 13 -61 41 20 16 22 26
22 138 0 111 -2 121 -21 131 -42 23 -4 35 114 38 96 2 118 0 132 -14z m2020
-9 c45 -30 63 -55 73 -103 18 -83 -22 -173 -93 -206 -49 -24 -248 -19 -253 6
-2 9 5 19 17 23 20 6 21 14 21 129 0 117 -1 124 -22 139 -37 26 -8 34 115 33
94 -1 117 -5 142 -21z m2917 -34 c31 -28 33 -33 32 -93 -1 -35 -8 -74 -15 -88
-18 -34 -55 -80 -64 -80 -3 0 -13 -7 -21 -15 -58 -58 -162 56 -133 146 33 100
85 159 141 159 16 0 41 -12 60 -29z m-4477 5 c23 -8 53 -30 70 -51 26 -32 30
-45 30 -99 0 -59 -2 -65 -40 -104 -40 -41 -54 -46 -133 -43 -69 2 -134 110
-113 188 12 42 67 103 92 103 10 0 21 5 24 10 8 13 22 12 70 -4z m-321 -2 c20
-8 21 -38 1 -54 -11 -9 -15 -35 -15 -101 l0 -89 39 0 c29 0 44 6 55 21 8 12
19 18 25 14 17 -10 13 -72 -5 -79 -20 -8 -178 -8 -198 0 -21 8 -20 24 1 39 24
18 32 178 10 203 -21 23 -9 39 33 45 19 2 36 5 37 5 1 1 8 -1 17 -4z m817 -4
c32 0 39 -3 39 -19 0 -11 -4 -23 -10 -26 -5 -3 -10 -47 -10 -97 0 -72 4 -95
17 -110 15 -17 15 -20 3 -28 -15 -9 -216 -8 -223 1 -1 2 -11 20 -21 39 -26 51
-54 83 -66 75 -17 -10 -12 -73 7 -83 29 -17 8 -42 -36 -42 -22 0 -46 3 -55 6
-20 8 -21 30 -1 38 12 4 15 26 15 105 0 56 -4 103 -10 106 -5 3 -10 13 -10 21
0 11 18 14 86 14 83 0 87 -1 115 -31 36 -38 37 -62 4 -87 -32 -26 -32 -35 7
-88 27 -39 36 -45 63 -42 l30 3 3 99 c2 81 0 100 -13 110 -20 14 -9 50 12 42
8 -3 32 -6 54 -6z m555 -4 c1 0 12 -35 24 -76 12 -41 26 -79 30 -85 4 -5 11
-24 14 -41 5 -20 15 -34 27 -37 13 -4 19 -12 17 -24 -2 -14 -14 -19 -53 -21
-60 -3 -85 9 -66 32 7 8 11 25 9 38 -6 43 -108 32 -108 -12 0 -10 5 -20 12
-22 6 -2 9 -12 5 -21 -9 -23 -85 -24 -94 -2 -3 9 1 21 10 28 15 12 57 97 57
115 0 5 7 23 15 38 8 16 15 36 15 45 0 27 39 61 63 53 12 -3 23 -7 23 -8z
m1281 -77 c12 -41 27 -82 33 -91 5 -10 10 -24 10 -32 0 -7 10 -26 21 -41 18
-22 20 -29 8 -36 -16 -10 -70 -12 -93 -3 -18 7 -22 34 -5 34 6 0 9 12 7 28 -2
22 -8 28 -35 30 -18 2 -41 -2 -53 -8 -22 -12 -27 -46 -8 -52 7 -3 9 -12 5 -22
-9 -24 -100 -19 -105 6 -2 9 5 19 17 23 12 3 21 11 21 17 0 10 28 76 56 130 8
14 14 35 14 45 0 11 9 29 20 41 35 37 60 17 87 -69z m210 81 c58 0 67 -3 94
-29 36 -36 37 -65 4 -95 -14 -13 -25 -28 -25 -34 0 -6 23 -34 51 -62 27 -27
47 -55 44 -60 -10 -16 -72 -12 -90 6 -8 9 -23 30 -31 47 -22 42 -45 68 -55 61
-15 -9 -10 -67 8 -86 15 -17 15 -20 3 -28 -26 -17 -100 -12 -107 6 -4 10 0 20
10 26 24 13 25 183 1 209 -20 22 -11 54 12 45 9 -3 45 -6 81 -6z m1005 -13
c13 -20 9 -47 -8 -54 -9 -3 -20 0 -24 7 -4 7 -25 13 -46 14 l-39 1 -3 -44 c-3
-43 -3 -44 25 -37 15 4 43 10 62 13 32 5 34 4 28 -18 -4 -13 -7 -29 -7 -35 0
-9 -11 -9 -37 -3 -70 16 -75 14 -71 -33 l3 -43 40 4 c22 2 52 12 67 23 26 18
29 18 35 2 3 -9 -1 -28 -10 -43 -15 -25 -20 -26 -112 -29 -111 -3 -140 8 -105
40 17 16 20 31 20 105 0 66 -4 91 -16 104 -32 36 -13 44 92 41 61 -2 102 -8
106 -15z m331 -17 c-1 -14 -5 -73 -7 -133 -3 -59 -8 -112 -11 -117 -11 -18
-42 -11 -58 14 -9 13 -22 29 -29 37 -8 8 -31 37 -52 64 -21 28 -43 50 -49 50
-18 0 -9 -116 11 -138 14 -16 14 -19 2 -27 -20 -13 -67 -12 -91 1 -19 9 -19
12 -6 27 20 23 28 195 10 213 -26 26 -14 39 32 39 38 0 47 -4 62 -27 10 -16
23 -34 30 -41 7 -7 27 -33 44 -57 18 -24 36 -42 40 -39 16 10 10 106 -7 125
-27 30 -12 46 38 40 38 -6 43 -9 41 -31z m-3068 9 c89 -62 85 -180 -8 -243
-33 -23 -48 -26 -120 -26 -98 0 -120 9 -93 38 15 17 17 34 13 114 -2 51 -7
103 -11 116 -8 22 -8 22 90 22 84 0 102 -3 129 -21z m1079 5 c11 -28 6 -54 -8
-54 -8 0 -17 4 -20 9 -8 12 -70 23 -90 15 -11 -4 -16 -18 -16 -45 0 -33 3 -39
21 -39 11 0 34 8 50 17 26 16 31 16 40 3 8 -14 4 -58 -7 -70 -3 -2 -14 1 -24
8 -11 7 -33 12 -50 12 -28 0 -30 -2 -30 -40 l0 -40 50 0 c36 0 52 4 56 15 4 8
12 15 19 15 19 0 26 -26 15 -55 -9 -24 -12 -25 -108 -25 -64 0 -104 4 -116 13
-16 12 -16 14 3 31 18 17 21 31 21 107 0 48 -4 91 -10 94 -5 3 -10 15 -10 26
0 18 8 19 104 19 85 0 105 -3 110 -16z m225 6 c10 -5 24 -23 31 -39 24 -59
-14 -121 -73 -121 -18 0 -38 -5 -45 -12 -17 -17 -15 -55 5 -66 10 -6 14 -16
10 -26 -9 -23 -105 -23 -114 0 -4 10 0 20 10 26 24 13 25 183 1 209 -9 10 -13
23 -9 28 8 14 160 15 184 1z m839 -24 c5 -38 -17 -51 -41 -25 -10 11 -26 19
-35 17 -14 -3 -17 -19 -20 -98 -3 -88 -1 -95 20 -112 20 -15 21 -19 8 -28 -19
-13 -101 -13 -120 0 -13 9 -12 13 8 28 21 17 23 24 20 112 -2 78 -6 95 -19 98
-9 2 -24 -4 -32 -13 -25 -25 -47 -19 -47 13 0 16 3 32 7 35 3 4 61 6 127 4
l121 -2 3 -29z m120 21 c6 -6 14 -26 18 -42 20 -79 64 -146 64 -97 0 10 7 27
15 38 8 10 15 26 15 35 0 9 7 30 16 47 13 28 21 32 54 32 46 0 58 -14 35 -40
-15 -17 -17 -32 -11 -107 5 -59 13 -94 24 -106 14 -16 14 -19 2 -27 -19 -12
-81 -12 -100 0 -12 8 -12 11 3 28 22 24 23 104 2 122 -12 10 -15 10 -18 -1 -2
-8 -10 -30 -16 -49 -7 -19 -16 -48 -20 -65 -5 -23 -12 -30 -31 -30 -20 0 -26
6 -32 35 -11 58 -40 130 -49 124 -16 -9 -11 -120 6 -134 35 -29 -53 -57 -95
-30 -12 8 -12 11 1 27 25 30 37 66 44 135 5 44 3 68 -4 72 -6 4 -11 16 -11 27
0 15 7 19 39 19 21 0 43 -6 49 -13z m1093 -14 c5 -14 8 -32 5 -40 -7 -17 -43
-17 -53 1 -8 14 -25 20 -51 17 -21 -2 -10 -181 13 -197 33 -24 11 -44 -48 -44
-63 0 -93 21 -57 40 19 10 21 18 18 108 -3 97 -3 97 -28 94 -13 -1 -28 -9 -33
-18 -13 -23 -37 2 -37 37 l0 29 130 0 130 0 11 -27z"/>
<path d="M2130 335 l0 -125 49 0 c43 0 55 5 85 34 32 29 36 39 36 82 0 83 -46
133 -122 134 l-48 0 0 -125z"/>
<path d="M5117 412 c-18 -20 -47 -104 -47 -138 0 -11 9 -29 20 -39 18 -17 21
-17 45 -1 33 22 45 54 45 120 0 71 -28 97 -63 58z"/>
<path d="M646 389 c-23 -18 -26 -28 -26 -77 1 -73 22 -102 75 -102 53 0 75 28
75 94 0 89 -64 132 -124 85z"/>
<path d="M957 403 c-15 -14 -7 -81 9 -87 23 -9 64 20 64 44 0 35 -51 65 -73
43z"/>
<path d="M1726 346 c-25 -39 -21 -58 12 -54 24 3 27 7 24 33 -5 43 -17 50 -36
21z"/>
<path d="M2987 346 c-24 -37 -22 -56 8 -56 21 0 25 5 25 28 0 45 -14 57 -33
28z"/>
<path d="M3267 403 c-4 -3 -7 -24 -7 -45 0 -35 2 -38 28 -38 38 0 58 38 36 69
-15 20 -44 28 -57 14z"/>
<path d="M1406 394 c-12 -31 -7 -182 7 -187 51 -19 127 37 127 95 0 39 -34 94
-63 102 -38 10 -65 7 -71 -10z"/>
<path d="M2757 403 c-10 -10 -8 -81 2 -87 16 -10 59 12 66 34 11 36 -43 78
-68 53z"/>
<path d="M6817 574 l-29 -25 -643 3 c-499 2 -647 6 -657 16 -19 19 -54 14 -70
-10 -34 -53 -28 -98 13 -98 35 0 19 -30 -26 -51 -29 -14 -30 -17 -37 -102 -4
-48 -12 -96 -18 -107 -5 -10 -10 -32 -10 -48 0 -16 -7 -35 -15 -42 -9 -7 -14
-15 -12 -17 3 -2 338 -4 745 -3 l740 0 30 -25 c16 -13 32 -22 36 -18 3 3 6 32
6 63 l0 57 -99 -5 c-55 -2 -111 -2 -125 2 -29 7 -35 30 -11 40 13 5 15 23 13
108 -2 70 -7 103 -15 106 -8 2 -13 -5 -13 -17 0 -27 -13 -33 -36 -16 -10 8
-31 15 -46 15 l-28 0 0 -94 c0 -86 2 -95 20 -101 24 -8 26 -30 4 -39 -20 -8
-88 -8 -108 0 -20 8 -20 23 -2 38 9 7 17 43 21 103 l7 93 -30 0 c-18 0 -35 -7
-40 -17 -13 -22 -42 -9 -42 19 0 47 3 48 238 47 122 0 226 2 231 6 6 3 18 -3
28 -15 10 -11 21 -20 25 -20 5 0 8 41 8 90 0 100 -6 106 -53 64z m-1027 -84
c11 -11 20 -29 20 -40 0 -21 15 -27 25 -10 3 5 58 8 128 7 l122 -2 3 -33 c4
-40 -18 -52 -47 -23 -39 39 -51 19 -51 -85 0 -76 3 -95 17 -102 10 -6 14 -16
10 -26 -5 -12 -20 -16 -60 -16 -63 0 -88 17 -58 40 16 12 20 31 23 107 5 102
-4 117 -48 88 -30 -19 -64 -19 -64 0 0 8 -5 15 -11 15 -6 0 -27 14 -46 30 -36
32 -62 33 -92 5 -18 -17 -5 -52 22 -60 87 -25 127 -62 127 -119 0 -38 -5 -48
-37 -75 -32 -27 -43 -31 -97 -31 -92 0 -104 6 -111 51 -7 40 0 79 15 79 5 0
21 -18 37 -40 24 -33 34 -40 64 -40 23 0 42 7 54 20 23 26 10 42 -62 76 -29
14 -65 41 -79 60 -24 30 -25 37 -14 63 12 31 45 65 70 74 8 3 39 6 68 6 39 1
57 -4 72 -19z m475 -83 c6 -19 13 -39 18 -43 4 -4 7 -17 7 -28 1 -12 9 -39 20
-61 11 -22 19 -45 20 -50 0 -6 9 -16 21 -23 31 -20 7 -42 -45 -42 -53 0 -75
13 -57 34 7 8 11 25 9 38 -6 43 -108 32 -108 -12 0 -10 5 -20 12 -22 6 -2 9
-12 5 -21 -11 -28 -107 -21 -107 8 0 8 9 17 20 20 11 3 20 11 20 17 0 5 6 24
14 41 43 95 56 127 56 140 0 7 9 23 20 35 28 30 62 16 75 -31z"/>
<path d="M6196 345 c-23 -36 -20 -55 9 -55 22 0 25 4 25 34 0 44 -13 53 -34
21z"/>
<path d="M6714 396 c-3 -8 -4 -27 -2 -43 4 -34 26 -40 70 -19 44 23 48 21 48
-25 0 -38 -2 -41 -22 -34 -13 4 -39 8 -58 9 -33 1 -35 -1 -38 -36 -3 -41 -3
-41 63 -38 25 1 47 9 58 21 10 11 22 17 28 14 5 -4 9 23 9 64 0 67 -1 71 -22
71 -13 1 -34 7 -48 15 -32 18 -79 19 -86 1z"/>
<path d="M2633 42 c-2545 -2 -2553 -2 -2553 -22 0 -20 8 -20 3360 -20 3336 0
3360 0 3360 20 0 19 -11 19 -757 22 -595 2 -761 0 -774 -9 -8 -7 -24 -13 -34
-13 -10 0 -26 6 -34 12 -13 10 -539 12 -2568 10z"/>
</g>
</svg>
